<?xml version="1.0" standalone="no"?>
<!DOCTYPE svg PUBLIC "-//W3C//DTD SVG 20010904//EN"
 "http://www.w3.org/TR/2001/REC-SVG-20010904/DTD/svg10.dtd">
<svg version="1.0" xmlns="http://www.w3.org/2000/svg"
 width="271.000000pt" height="370.000000pt" viewBox="0 0 271.000000 370.000000"
 preserveAspectRatio="xMidYMid meet">
<metadata>
Created by potrace 1.16, written by Peter Selinger 2001-2019
</metadata>
<g transform="translate(0.000000,370.000000) scale(0.100000,-0.100000)"
fill="#000000" stroke="none">
<path d="M1455 3651 c-27 -4 -68 -16 -90 -26 -22 -10 -42 -19 -45 -20 -23 -8
-50 -23 -80 -43 -51 -34 -166 -148 -162 -160 2 -6 -12 -32 -31 -59 -49 -68
-83 -135 -82 -158 0 -11 -5 -26 -12 -33 -15 -16 -17 -32 -4 -32 5 0 24 25 41
56 33 57 88 104 168 144 52 26 50 38 -2 14 -40 -20 -42 -19 -51 16 -5 21 3 35
52 84 135 137 261 193 416 184 146 -9 239 -58 382 -202 96 -97 187 -235 242
-370 15 -38 29 -62 31 -53 5 25 -89 217 -153 313 -114 170 -294 314 -425 339
-47 9 -152 12 -195 6z"/>
<path d="M1466 3433 c-2 -3 -18 -5 -35 -5 -18 -1 -34 -5 -37 -9 -2 -5 -11 -6
-19 -2 -9 3 -21 1 -28 -5 -15 -12 -89 -37 -100 -34 -5 1 -6 -2 -2 -8 4 -6 12
-7 24 0 27 14 190 -41 229 -77 7 -7 19 -13 27 -13 7 0 15 -3 17 -7 2 -5 23
-26 47 -48 24 -22 41 -35 38 -29 -12 20 25 25 47 7 18 -16 19 -16 7 -1 -18 23
-5 43 17 26 15 -12 16 -11 3 5 -11 14 -16 15 -29 5 -13 -11 -14 -10 -8 9 4 12
2 24 -4 28 -5 3 -10 0 -10 -9 0 -8 -6 -17 -12 -19 -10 -4 -10 -6 0 -6 21 -1 3
-21 -20 -21 -11 0 -22 8 -25 20 -3 11 -9 17 -14 14 -18 -11 -8 23 11 41 11 10
20 13 20 7 0 -7 -5 -12 -11 -12 -8 0 -9 -4 0 -13 6 -8 7 -18 3 -23 -4 -4 1 -2
11 5 9 7 17 10 17 5 0 -4 11 7 25 26 14 19 25 29 25 24 0 -6 7 -11 15 -11 20
0 19 14 -2 26 -15 9 -13 10 10 9 22 -2 27 -7 24 -20 -3 -10 -1 -18 4 -18 5 0
9 6 9 14 0 9 10 13 26 12 18 -1 24 -6 21 -17 -3 -9 -1 -23 4 -30 7 -12 9 -11
9 1 0 13 1 13 10 0 9 -13 10 -13 11 0 1 8 5 -1 8 -20 7 -35 7 -35 20 -11 11
19 11 28 0 47 -9 17 -16 21 -25 13 -8 -7 -14 -6 -20 2 -4 8 -3 9 4 5 7 -4 12
-1 12 9 0 9 -4 13 -10 10 -16 -10 -34 6 -19 17 9 6 5 7 -12 3 -21 -5 -27 -2
-32 14 -3 12 -13 21 -25 21 -11 0 -22 6 -25 14 -4 9 -15 12 -33 8 -19 -3 -25
-1 -20 7 7 11 1 12 -132 16 -23 1 -44 0 -46 -2z"/>
<path d="M1690 3289 c0 -5 -5 -7 -12 -3 -7 4 -8 3 -4 -5 4 -6 11 -9 15 -7 4 3
14 -11 21 -30 8 -19 21 -41 31 -49 9 -9 15 -27 13 -40 -2 -19 3 -25 16 -25 10
0 22 -4 25 -10 3 -5 -3 -10 -14 -10 -11 0 -23 -4 -26 -10 -3 -5 3 -10 14 -10
12 0 21 -5 21 -11 0 -5 -5 -7 -11 -3 -8 4 -8 0 0 -15 7 -11 17 -21 24 -21 7 0
13 -12 13 -26 2 -18 -2 -24 -12 -20 -31 12 -11 -5 22 -19 24 -10 34 -20 31
-29 -4 -9 -1 -13 6 -11 7 3 19 0 27 -5 12 -8 13 -12 2 -19 -18 -11 -2 -17 58
-20 31 -1 41 1 31 8 -8 5 -24 7 -37 5 -28 -5 -39 10 -25 33 6 11 11 13 11 5 0
-7 5 -10 10 -7 6 4 9 1 8 -5 -2 -7 9 -14 25 -15 33 -4 36 10 5 19 -20 5 -21 8
-8 19 18 15 24 37 10 37 -5 0 -10 -5 -10 -12 0 -6 -3 -8 -7 -5 -3 4 4 18 17
32 13 14 18 26 12 26 -38 4 -49 6 -64 13 -10 5 -25 6 -33 3 -8 -4 -17 -2 -20
3 -4 6 0 10 7 11 7 0 21 2 31 4 9 2 17 0 17 -5 0 -11 39 -20 45 -10 7 12 -27
30 -59 32 -19 2 -26 8 -26 22 0 20 -1 19 -16 -2 -16 -23 -34 -29 -34 -12 0 5
3 9 8 9 19 -3 23 2 13 15 -22 26 15 26 40 0 17 -18 25 -21 31 -12 11 18 10 30
-1 23 -5 -3 -12 -1 -16 5 -3 5 1 10 9 10 9 0 16 5 16 12 0 6 -3 8 -7 5 -3 -4
-12 -2 -20 5 -8 6 -13 7 -11 2 2 -5 -2 -9 -7 -9 -5 0 -9 3 -7 8 1 4 -5 7 -13
7 -8 0 -15 -7 -15 -15 0 -8 -5 -15 -11 -15 -7 0 -5 10 5 25 9 14 12 25 6 25
-5 0 -10 7 -10 15 0 8 -5 15 -12 15 -6 0 -9 -3 -5 -6 3 -3 -6 -17 -20 -30 -14
-13 -21 -24 -14 -24 6 0 11 -4 11 -9 0 -11 -19 -9 -38 2 -7 5 -9 13 -6 19 4 6
1 14 -6 18 -7 5 -10 15 -6 25 5 14 9 15 20 6 9 -8 16 -8 20 -2 4 5 -3 13 -15
16 -14 5 -18 12 -14 23 3 9 3 13 -1 9 -4 -4 -13 1 -21 11 -12 16 -13 16 -7 -3
l5 -20 -13 20 c-14 22 -38 31 -38 14z"/>
<path d="M888 3028 c-83 -210 -151 -492 -183 -753 -25 -206 -25 -203 -38 -180
-14 28 -20 30 -64 30 -21 0 -41 4 -45 9 -4 6 -23 9 -42 8 -21 -2 -36 2 -36 9
0 6 -6 9 -12 6 -7 -2 -21 0 -32 5 -14 8 -17 7 -11 -3 5 -8 4 -10 -4 -5 -7 4
-31 10 -54 13 -23 2 -45 10 -49 16 -4 7 -11 12 -15 13 -22 2 -43 18 -44 33 -1
9 -5 0 -10 -19 -5 -19 -11 -129 -14 -245 -4 -115 -11 -228 -17 -250 -7 -22
-11 -44 -10 -48 2 -5 -2 -6 -7 -3 -5 3 -25 -15 -44 -41 -51 -72 -54 -83 -8
-33 39 41 41 43 35 18 -4 -20 -2 -28 7 -29 19 -2 21 -1 44 6 15 6 14 3 -5 -10
-79 -56 -111 -105 -134 -206 -16 -65 -7 -70 13 -8 12 36 75 119 91 119 14 0 5
-28 -17 -52 -11 -13 -28 -36 -38 -53 -13 -21 -4 -15 32 22 57 57 120 83 203
83 159 0 393 -128 558 -305 78 -84 105 -125 100 -154 -2 -14 -28 5 -108 81
-194 184 -346 280 -493 313 -93 20 -109 17 -98 -22 4 -15 7 -43 7 -60 -1 -18
2 -33 7 -33 4 0 7 -9 7 -20 0 -11 5 -20 10 -20 6 0 10 -11 10 -24 0 -13 7 -29
15 -36 8 -7 15 -18 15 -25 0 -8 12 -23 26 -34 l27 -21 -54 -1 c-30 0 -47 -3
-39 -6 8 -4 21 -12 28 -20 11 -11 10 -13 -6 -13 -28 0 -44 -24 -36 -54 9 -38
41 -56 100 -56 48 0 54 -3 102 -49 27 -28 53 -47 56 -44 3 4 6 1 6 -5 0 -6 9
-14 21 -17 11 -4 18 -9 16 -12 -8 -7 28 -40 52 -48 12 -3 19 -10 16 -15 -4 -7
20 -23 35 -23 3 0 15 -11 27 -24 l22 -23 -27 -6 c-47 -10 -52 -13 -52 -29 0
-27 38 -55 75 -55 47 0 45 18 -2 23 l-38 4 43 1 c52 2 56 19 5 25 -35 3 -34 4
10 5 33 1 46 -2 45 -10 -2 -7 5 -12 15 -12 15 2 16 -1 5 -14 -10 -12 -10 -14
-1 -8 8 4 13 2 13 -4 0 -6 4 -9 9 -5 6 3 13 -1 18 -9 4 -8 11 -14 14 -13 11 4
36 -28 31 -41 -2 -8 2 -10 14 -5 12 4 15 3 10 -5 -5 -8 -2 -10 8 -6 15 6 21
-6 17 -29 -1 -5 2 -6 7 -3 5 3 14 -4 22 -14 8 -10 17 -17 22 -14 5 3 8 2 7 -3
-1 -4 -1 -17 0 -28 1 -15 3 -17 10 -6 7 11 10 9 16 -9 6 -18 9 -20 16 -9 7 11
9 10 10 -3 1 -10 2 -24 3 -30 1 -7 10 -12 21 -10 15 2 17 1 6 -6 -11 -8 -10
-13 6 -29 11 -11 24 -18 30 -16 7 3 9 -4 6 -18 -5 -18 -3 -20 13 -11 10 5 24
11 29 13 6 2 9 9 7 15 -1 6 4 14 12 17 11 4 14 21 11 69 -3 55 -2 58 5 23 22
-101 4 -205 -47 -271 -19 -26 -29 -43 -21 -38 49 29 81 63 105 112 85 173 1
486 -203 762 -27 36 -47 73 -45 83 3 24 -172 198 -269 266 -149 105 -313 170
-434 172 -75 1 -20 17 64 18 234 3 546 -214 694 -482 14 -26 54 -93 88 -150
70 -117 130 -254 154 -353 24 -99 22 -235 -4 -302 -23 -60 -29 -57 80 -43 61
8 141 37 176 64 11 8 11 12 0 18 -9 6 -6 9 9 9 12 0 37 13 55 28 31 27 34 27
50 11 9 -10 14 -19 12 -22 -8 -8 21 -23 66 -34 66 -16 240 -1 275 23 11 8 27
14 36 14 10 0 30 10 46 23 15 13 46 33 68 45 22 12 31 15 20 7 -42 -33 -91
-65 -115 -76 -14 -6 -38 -17 -53 -25 -16 -8 -46 -14 -67 -14 -21 0 -42 -4 -45
-10 -8 -12 -5 -12 74 1 131 21 238 84 354 209 67 72 76 79 79 58 3 -19 8 -15
34 32 62 109 94 232 95 364 0 50 5 109 10 131 5 22 5 62 1 90 -7 46 -9 38 -19
-84 -7 -74 -16 -138 -22 -144 -7 -7 -8 10 -4 49 4 40 2 56 -5 49 -10 -10 -22
-79 -22 -128 0 -15 -6 -38 -15 -50 -8 -12 -15 -33 -15 -47 0 -14 -9 -40 -20
-58 -11 -18 -20 -41 -20 -52 0 -10 -7 -25 -15 -33 -8 -8 -24 -33 -35 -55 -12
-22 -29 -43 -38 -46 -15 -5 -15 -4 -2 7 27 23 96 158 92 180 -1 4 2 7 8 7 14
0 13 27 -2 36 -8 5 -9 2 -5 -10 5 -13 3 -17 -7 -13 -10 4 -13 1 -9 -9 3 -7 0
-14 -7 -14 -6 0 -8 5 -5 10 3 6 0 10 -7 10 -8 0 -6 5 5 11 11 6 17 20 15 32
-1 12 2 28 6 36 7 10 6 12 -4 6 -9 -5 -11 -4 -6 3 4 7 16 12 27 12 10 0 19 3
20 8 1 8 6 32 10 51 2 7 -3 15 -11 17 -39 9 -55 8 -52 -3 1 -7 -2 -13 -8 -13
-6 0 -9 -3 -9 -7 4 -25 -2 -53 -11 -48 -6 4 -10 -5 -10 -20 0 -33 -28 -77 -44
-68 -6 4 -5 -1 3 -10 12 -15 12 -17 -3 -11 -9 4 -16 3 -15 -2 3 -20 -2 -35
-10 -30 -5 3 -12 -5 -15 -18 -3 -14 -15 -27 -26 -31 -10 -3 -22 -15 -25 -26
-4 -10 -15 -19 -26 -19 -10 0 -19 -5 -19 -12 0 -6 -3 -8 -7 -5 -3 4 -17 -9
-30 -28 -13 -19 -28 -35 -34 -35 -6 0 -7 -6 -3 -12 4 -7 4 -10 -1 -6 -4 4 -30
-8 -56 -28 -27 -20 -49 -33 -49 -29 0 4 -7 2 -15 -5 -8 -7 -24 -10 -35 -7 -11
3 -18 2 -15 -3 3 -4 -12 -8 -33 -8 -20 -1 -57 -5 -81 -11 -26 -5 -54 -5 -68 0
-14 5 -23 5 -23 -1 0 -6 -7 -10 -16 -10 -10 0 -14 6 -10 18 24 82 34 135 35
181 1 20 3 22 16 11 25 -20 149 -13 202 12 86 41 169 168 198 303 19 92 19
245 -1 320 -18 71 -86 202 -117 228 -39 32 -91 49 -152 49 -75 1 -105 -4 -105
-16 0 -5 -3 -7 -6 -3 -9 9 -79 -28 -105 -56 -40 -42 -109 -161 -109 -188 0 -5
24 -59 54 -121 84 -174 128 -325 124 -431 -1 -46 -2 -48 -5 -12 -2 22 -5 45
-7 50 -2 6 -4 15 -6 20 -1 6 -7 18 -12 29 -8 15 -12 16 -19 5 -6 -11 -11 -11
-20 -2 -10 10 -9 14 4 19 23 9 21 49 -3 72 -15 14 -19 27 -15 49 4 24 1 30
-13 30 -36 0 -42 4 -42 24 0 11 5 29 10 40 10 17 8 19 -22 17 -33 -3 -36 1
-22 36 6 15 4 18 -9 13 -23 -9 -28 5 -12 36 16 31 16 31 -19 17 -30 -11 -35 3
-11 36 18 26 11 34 -30 34 -19 0 -39 8 -50 20 -18 20 -18 22 -2 49 24 42 22
44 -29 37 l-46 -6 6 31 c3 19 2 28 -4 24 -14 -9 -43 23 -37 40 4 10 -3 15 -26
17 -29 3 -32 6 -31 36 1 21 -3 32 -12 32 -8 0 -14 5 -14 10 0 6 -11 10 -24 10
-23 0 -38 18 -41 50 -1 8 -3 21 -4 29 -1 11 -4 11 -16 1 -20 -17 -43 -6 -47
22 -2 13 -9 22 -16 21 -6 -2 -12 2 -12 7 0 6 -9 10 -19 10 -12 0 -24 12 -32
29 -8 18 -24 32 -43 38 -20 6 -32 17 -36 33 -4 16 -14 26 -28 28 -12 2 -22 8
-22 13 0 5 -6 9 -14 9 -8 0 -16 6 -19 13 -6 15 -102 47 -141 47 -15 0 -33 6
-39 13 -14 14 -18 77 -6 77 12 0 11 61 -2 98 -8 22 -7 63 1 144 25 258 86 528
165 737 42 110 48 141 27 141 -4 0 -24 -42 -44 -92z m-81 -1209 c266 -99 542
-350 718 -653 24 -41 26 -48 11 -43 -14 5 -17 3 -12 -8 14 -37 -13 -8 -59 62
-91 141 -214 279 -340 382 -89 73 -145 111 -274 186 -61 35 -105 67 -107 78
-3 21 -6 21 63 -4z m178 -172 c167 -111 320 -269 430 -441 23 -37 32 -57 22
-53 -9 3 -17 3 -19 -1 -2 -4 -25 -18 -53 -31 -54 -27 -57 -28 -80 -30 -11 -1
-5 -16 21 -58 20 -32 45 -68 56 -79 19 -21 19 -21 -4 -27 -14 -4 -29 0 -40 10
-21 18 -63 87 -48 78 12 -7 12 -3 4 19 -3 9 -10 16 -16 16 -5 0 -6 -4 -3 -10
14 -23 -3 -8 -25 23 -13 17 -17 26 -8 19 11 -9 18 -10 23 -2 3 5 1 10 -5 10
-7 0 -10 6 -7 13 6 15 -76 122 -151 200 -26 27 -97 89 -158 139 -165 133 -232
236 -190 293 12 17 16 18 32 5 16 -14 17 -13 12 7 -6 21 -1 20 70 -19 43 -22
104 -59 137 -81z m1068 -678 c125 -100 122 -97 114 -105 -5 -5 -125 88 -204
159 -22 20 -23 20 -23 1 0 -11 25 -37 63 -66 100 -76 164 -137 145 -138 -11 0
-15 -5 -12 -15 5 -11 -1 -15 -22 -15 -26 -1 -27 -2 -12 -14 10 -7 15 -16 11
-20 -3 -3 -15 2 -25 11 -13 12 -22 13 -29 6 -8 -8 -5 -14 10 -22 12 -7 21 -16
21 -22 0 -6 -12 -2 -27 9 -16 10 -36 22 -45 25 -10 4 -18 14 -18 24 0 15 -2
16 -10 3 -8 -13 -10 -13 -10 1 0 9 -9 24 -21 35 -13 12 -19 27 -16 41 3 15 -2
27 -12 33 -11 6 -12 9 -3 10 7 0 35 -18 61 -40 44 -37 72 -50 71 -32 -1 4 -23
25 -50 46 -28 22 -50 43 -50 48 0 4 -7 8 -16 8 -8 0 -12 -4 -9 -10 3 -6 -1 -7
-10 -3 -9 3 -13 9 -8 12 14 11 16 61 1 61 -8 0 -9 3 -2 8 6 4 13 15 17 25 3 9
9 17 12 17 3 0 52 -37 108 -81z m-467 -174 c22 -74 26 -111 27 -205 1 -99 -2
-123 -23 -175 -13 -33 -23 -63 -23 -66 1 -3 -17 -24 -40 -45 -23 -21 -33 -29
-24 -18 43 51 85 382 62 489 -14 67 -28 111 -51 159 -13 28 -22 57 -19 66 8
20 56 -88 91 -205z"/>
<path d="M2154 2232 c3 -6 2 -14 -4 -17 -7 -4 -9 -57 -8 -146 l3 -139 60 1
c58 1 59 1 25 11 -33 10 -34 11 -12 19 14 5 20 14 16 20 -3 6 -8 41 -10 77 -3
36 -10 72 -17 81 -9 12 -9 13 1 7 6 -4 12 -3 12 3 0 5 -6 14 -14 18 -7 4 -17
21 -23 37 -5 17 -15 32 -23 34 -7 3 -10 0 -6 -6z"/>
<path d="M2088 1882 c-44 -5 -37 -39 10 -51 61 -15 75 -19 114 -33 20 -8 45
-21 55 -29 43 -34 65 -42 79 -27 12 12 11 17 -6 36 -12 12 -31 22 -43 22 -12
0 -29 5 -37 10 -28 18 22 11 68 -10 45 -21 59 -12 16 11 -14 7 -37 26 -50 42
-21 25 -29 28 -101 30 -43 1 -90 1 -105 -1z"/>
</g>
</svg>
